<?xml version="1.0" encoding="utf-8"?>
<!-- Generator: Adobe Illustrator 24.0.0, SVG Export Plug-In . SVG Version: 6.00 Build 0)  -->
<svg version="1.1" id="Layer_1" xmlns="http://www.w3.org/2000/svg" xmlns:xlink="http://www.w3.org/1999/xlink" x="0px" y="0px"
	 viewBox="0 0 464 464" style="enable-background:new 0 0 464 464;" xml:space="preserve">
<style type="text/css">
	.st0{fill:#FFCD00;}
	.st1{fill:#CD2A00;}
	.st2{fill:#CCA400;}
	.st3{fill:#83D8F4;}
	.st4{fill:#003F8A;}
</style>
<path class="st0" d="M355.2,464H20V96h96V0h240L355.2,464z"/>
<g>
	<path class="st1" d="M148,320c0,13.3-10.7,24-24,24s-24-10.7-24-24s10.7-24,24-24S148,306.7,148,320z"/>
	<path class="st1" d="M260,288c0,13.3-10.7,24-24,24s-24-10.7-24-24s10.7-24,24-24S260,274.7,260,288z"/>
	<path class="st1" d="M148,216l112-32v-32l-112,32V216z"/>
</g>
<path class="st2" d="M116,0L20,96h96V0z"/>
<path class="st3" d="M444,376c0,48.6-39.4,88-88,88s-88-39.4-88-88s39.4-88,88-88S444,327.4,444,376z"/>
<path class="st1" d="M264.8,145.6c-2-1.5-4.6-2-7-1.3l-112,32c-3.4,1-5.8,4.1-5.8,7.7v108.4c-4.8-2.9-10.4-4.4-16-4.4
	c-17.7,0-32,14.3-32,32s14.3,32,32,32s32-14.3,32-32v-98l96-27.4v65.8c-4.8-2.9-10.4-4.4-16-4.4c-17.7,0-32,14.3-32,32
	s14.3,32,32,32s32-14.3,32-32V152C268,149.5,266.8,147.1,264.8,145.6z M124,336c-8.8,0-16-7.2-16-16s7.2-16,16-16s16,7.2,16,16
	S132.8,336,124,336z M156,190l96-27.4V178l-96,27.4V190z M236,304c-8.8,0-16-7.2-16-16s7.2-16,16-16s16,7.2,16,16S244.8,304,236,304
	z"/>
<path class="st4" d="M356,432c-4.4,0-8-3.6-8-8v-96c0-4.4,3.6-8,8-8s8,3.6,8,8v96C364,428.4,360.4,432,356,432z"/>
<path class="st4" d="M389.9,369.9c-2.1,0-4.2-0.8-5.7-2.3L356,339.3l-28.3,28.3c-3.1,3-8.1,3-11.2-0.1s-3.1-8.1-0.1-11.2l33.9-33.9
	c3.1-3.1,8.2-3.1,11.3,0l33.9,33.9c2.3,2.3,3,5.7,1.7,8.7S393.2,369.9,389.9,369.9z"/>
</svg>
